<svg xmlns="http://www.w3.org/2000/svg" xmlns:xlink="http://www.w3.org/1999/xlink" width="500" zoomAndPan="magnify" viewBox="0 0 375 374.999991" height="500" preserveAspectRatio="xMidYMid meet" version="1.0"><defs><clipPath id="556f29a400"><path d="M 131.25 131.25 L 243.75 131.25 L 243.75 243.75 L 131.25 243.75 Z M 131.25 131.25 " clip-rule="nonzero"/></clipPath><clipPath id="bed2a91662"><path d="M 187.5 131.25 C 156.433594 131.25 131.25 156.433594 131.25 187.5 C 131.25 218.566406 156.433594 243.75 187.5 243.75 C 218.566406 243.75 243.75 218.566406 243.75 187.5 C 243.75 156.433594 218.566406 131.25 187.5 131.25 Z M 187.5 131.25 " clip-rule="nonzero"/></clipPath></defs><g clip-path="url(#556f29a400)"><g clip-path="url(#bed2a91662)"><path fill="#e2e2e2" d="M 131.25 131.25 L 243.75 131.25 L 243.75 243.75 L 131.25 243.75 Z M 131.25 131.25 " fill-opacity="1" fill-rule="nonzero"/></g></g><path fill="#b95fa1" d="M 96.875 144.023438 L 0.0390625 144.023438 L 0.0390625 269.023438 C 0.0390625 327.554688 47.5 375 106.019531 375 L 269.0625 375 C 327.59375 375 375.039062 327.554688 375.039062 269.023438 L 375.039062 144.023438 L 278.21875 144.023438 C 284.539062 157.175781 288.085938 171.929688 288.085938 187.5 C 288.085938 242.988281 243.03125 288.042969 187.539062 288.042969 C 132.050781 288.042969 86.996094 242.988281 86.996094 187.5 C 86.996094 171.929688 90.542969 157.175781 96.875 144.023438 Z M 96.875 144.023438 " fill-opacity="1" fill-rule="evenodd"/><path fill="#f44336" d="M 260.910156 187.5 C 260.910156 188.699219 260.878906 189.902344 260.820312 191.101562 C 260.761719 192.300781 260.675781 193.496094 260.558594 194.691406 C 260.4375 195.886719 260.292969 197.078125 260.117188 198.265625 C 259.941406 199.453125 259.734375 200.636719 259.5 201.8125 C 259.265625 202.992188 259.003906 204.164062 258.710938 205.328125 C 258.417969 206.492188 258.097656 207.648438 257.75 208.796875 C 257.402344 209.949219 257.027344 211.085938 256.621094 212.21875 C 256.214844 213.347656 255.785156 214.46875 255.324219 215.578125 C 254.867188 216.6875 254.378906 217.785156 253.867188 218.871094 C 253.351562 219.953125 252.8125 221.027344 252.246094 222.085938 C 251.679688 223.144531 251.089844 224.191406 250.472656 225.21875 C 249.855469 226.25 249.210938 227.261719 248.546875 228.261719 C 247.878906 229.261719 247.1875 230.242188 246.472656 231.207031 C 245.757812 232.171875 245.019531 233.117188 244.257812 234.046875 C 243.496094 234.972656 242.710938 235.882812 241.902344 236.773438 C 241.097656 237.660156 240.269531 238.53125 239.421875 239.378906 C 238.570312 240.230469 237.703125 241.058594 236.8125 241.863281 C 235.921875 242.667969 235.015625 243.453125 234.085938 244.214844 C 233.15625 244.976562 232.210938 245.714844 231.246094 246.429688 C 230.28125 247.144531 229.300781 247.835938 228.300781 248.503906 C 227.304688 249.171875 226.289062 249.8125 225.261719 250.429688 C 224.230469 251.046875 223.1875 251.640625 222.125 252.207031 C 221.066406 252.773438 219.996094 253.3125 218.910156 253.824219 C 217.824219 254.339844 216.726562 254.824219 215.617188 255.285156 C 214.507812 255.742188 213.386719 256.175781 212.257812 256.582031 C 211.128906 256.984375 209.988281 257.363281 208.839844 257.710938 C 207.691406 258.058594 206.53125 258.378906 205.367188 258.671875 C 204.203125 258.960938 203.03125 259.226562 201.855469 259.460938 C 200.675781 259.695312 199.492188 259.898438 198.304688 260.074219 C 197.117188 260.25 195.925781 260.398438 194.730469 260.515625 C 193.539062 260.632812 192.339844 260.722656 191.140625 260.78125 C 189.941406 260.839844 188.742188 260.871094 187.539062 260.871094 C 186.339844 260.871094 185.140625 260.839844 183.941406 260.78125 C 182.742188 260.722656 181.542969 260.632812 180.347656 260.515625 C 179.152344 260.398438 177.960938 260.25 176.773438 260.074219 C 175.585938 259.898438 174.40625 259.695312 173.226562 259.460938 C 172.050781 259.226562 170.878906 258.960938 169.714844 258.671875 C 168.546875 258.378906 167.390625 258.058594 166.242188 257.710938 C 165.09375 257.363281 163.953125 256.984375 162.824219 256.582031 C 161.691406 256.175781 160.574219 255.742188 159.464844 255.285156 C 158.355469 254.824219 157.257812 254.339844 156.171875 253.824219 C 155.085938 253.3125 154.011719 252.773438 152.953125 252.207031 C 151.894531 251.640625 150.851562 251.046875 149.820312 250.429688 C 148.789062 249.8125 147.777344 249.171875 146.777344 248.503906 C 145.78125 247.835938 144.796875 247.144531 143.835938 246.429688 C 142.871094 245.714844 141.921875 244.976562 140.996094 244.214844 C 140.066406 243.453125 139.160156 242.667969 138.269531 241.863281 C 137.378906 241.058594 136.507812 240.230469 135.660156 239.378906 C 134.8125 238.53125 133.984375 237.660156 133.175781 236.773438 C 132.371094 235.882812 131.585938 234.972656 130.824219 234.046875 C 130.0625 233.117188 129.324219 232.171875 128.609375 231.207031 C 127.894531 230.242188 127.203125 229.261719 126.535156 228.261719 C 125.867188 227.261719 125.226562 226.25 124.609375 225.21875 C 123.992188 224.191406 123.402344 223.144531 122.835938 222.085938 C 122.269531 221.027344 121.730469 219.953125 121.214844 218.871094 C 120.703125 217.785156 120.214844 216.6875 119.757812 215.578125 C 119.296875 214.46875 118.863281 213.347656 118.460938 212.21875 C 118.054688 211.085938 117.679688 209.945312 117.332031 208.796875 C 116.980469 207.648438 116.660156 206.492188 116.371094 205.328125 C 116.078125 204.164062 115.816406 202.992188 115.582031 201.8125 C 115.347656 200.636719 115.140625 199.453125 114.964844 198.265625 C 114.789062 197.078125 114.640625 195.886719 114.523438 194.691406 C 114.40625 193.496094 114.320312 192.300781 114.257812 191.101562 C 114.199219 189.902344 114.171875 188.699219 114.171875 187.5 C 114.171875 186.300781 114.199219 185.097656 114.257812 183.898438 C 114.320312 182.699219 114.40625 181.503906 114.523438 180.308594 C 114.640625 179.113281 114.789062 177.921875 114.964844 176.734375 C 115.140625 175.546875 115.347656 174.363281 115.582031 173.1875 C 115.816406 172.007812 116.078125 170.835938 116.371094 169.671875 C 116.660156 168.507812 116.980469 167.351562 117.332031 166.203125 C 117.679688 165.050781 118.054688 163.914062 118.460938 162.78125 C 118.863281 161.652344 119.296875 160.53125 119.753906 159.421875 C 120.214844 158.3125 120.703125 157.214844 121.214844 156.128906 C 121.726562 155.042969 122.269531 153.972656 122.835938 152.914062 C 123.398438 151.855469 123.992188 150.808594 124.609375 149.78125 C 125.226562 148.75 125.867188 147.734375 126.535156 146.738281 C 127.203125 145.738281 127.894531 144.757812 128.609375 143.792969 C 129.324219 142.828125 130.0625 141.882812 130.824219 140.953125 C 131.585938 140.027344 132.371094 139.117188 133.175781 138.226562 C 133.984375 137.339844 134.8125 136.46875 135.660156 135.621094 C 136.507812 134.769531 137.378906 133.941406 138.269531 133.136719 C 139.160156 132.332031 140.066406 131.546875 140.996094 130.785156 C 141.921875 130.023438 142.871094 129.285156 143.835938 128.570312 C 144.800781 127.855469 145.78125 127.164062 146.777344 126.496094 C 147.777344 125.828125 148.789062 125.1875 149.820312 124.570312 C 150.851562 123.953125 151.894531 123.359375 152.953125 122.792969 C 154.011719 122.226562 155.085938 121.6875 156.171875 121.175781 C 157.257812 120.660156 158.355469 120.175781 159.464844 119.714844 C 160.574219 119.253906 161.691406 118.824219 162.824219 118.417969 C 163.953125 118.015625 165.09375 117.636719 166.242188 117.289062 C 167.390625 116.941406 168.546875 116.621094 169.714844 116.328125 C 170.878906 116.039062 172.050781 115.773438 173.226562 115.539062 C 174.40625 115.304688 175.585938 115.101562 176.773438 114.925781 C 177.960938 114.75 179.15625 114.601562 180.347656 114.484375 C 181.542969 114.367188 182.742188 114.277344 183.941406 114.21875 C 185.140625 114.160156 186.339844 114.128906 187.539062 114.128906 C 188.742188 114.128906 189.941406 114.160156 191.140625 114.21875 C 192.339844 114.277344 193.539062 114.367188 194.730469 114.484375 C 195.925781 114.601562 197.117188 114.75 198.304688 114.925781 C 199.492188 115.101562 200.675781 115.304688 201.855469 115.539062 C 203.03125 115.773438 204.203125 116.039062 205.367188 116.328125 C 206.53125 116.621094 207.691406 116.941406 208.839844 117.289062 C 209.988281 117.636719 211.128906 118.015625 212.257812 118.417969 C 213.386719 118.824219 214.507812 119.253906 215.617188 119.714844 C 216.726562 120.175781 217.824219 120.660156 218.910156 121.175781 C 219.996094 121.6875 221.066406 122.226562 222.125 122.792969 C 223.1875 123.359375 224.230469 123.953125 225.261719 124.570312 C 226.289062 125.1875 227.304688 125.828125 228.300781 126.496094 C 229.300781 127.164062 230.28125 127.855469 231.246094 128.570312 C 232.210938 129.285156 233.15625 130.023438 234.085938 130.785156 C 235.015625 131.546875 235.921875 132.332031 236.8125 133.136719 C 237.703125 133.941406 238.570312 134.769531 239.421875 135.621094 C 240.269531 136.46875 241.097656 137.339844 241.902344 138.226562 C 242.710938 139.117188 243.496094 140.027344 244.257812 140.953125 C 245.019531 141.882812 245.757812 142.828125 246.472656 143.792969 C 247.1875 144.757812 247.878906 145.738281 248.546875 146.738281 C 249.210938 147.734375 249.855469 148.75 250.472656 149.78125 C 251.089844 150.808594 251.679688 151.855469 252.246094 152.914062 C 252.8125 153.972656 253.351562 155.042969 253.867188 156.128906 C 254.378906 157.214844 254.867188 158.3125 255.324219 159.421875 C 255.785156 160.53125 256.214844 161.652344 256.621094 162.78125 C 257.027344 163.914062 257.402344 165.050781 257.75 166.203125 C 258.097656 167.351562 258.417969 168.507812 258.710938 169.671875 C 259.003906 170.835938 259.265625 172.007812 259.5 173.1875 C 259.734375 174.363281 259.941406 175.546875 260.117188 176.734375 C 260.292969 177.921875 260.4375 179.113281 260.558594 180.308594 C 260.675781 181.503906 260.761719 182.699219 260.820312 183.898438 C 260.878906 185.097656 260.910156 186.300781 260.910156 187.5 Z M 260.910156 187.5 " fill-opacity="1" fill-rule="nonzero"/><path fill="#f44336" d="M 0.0390625 122.28125 L 111.046875 122.28125 C 129.496094 100.664062 156.929688 86.957031 187.539062 86.957031 C 218.164062 86.957031 245.597656 100.664062 264.050781 122.28125 L 375.039062 122.28125 L 375.039062 105.976562 C 375.039062 47.445312 327.59375 0 269.0625 0 L 106.019531 0 C 47.5 0 0.0390625 47.445312 0.0390625 105.976562 Z M 296.238281 57.066406 C 308.234375 57.066406 317.976562 66.808594 317.976562 78.804688 C 317.976562 90.800781 308.234375 100.542969 296.238281 100.542969 C 284.238281 100.542969 274.496094 90.800781 274.496094 78.804688 C 274.496094 66.808594 284.238281 57.066406 296.238281 57.066406 Z M 296.238281 57.066406 " fill-opacity="1" fill-rule="evenodd"/></svg>