<svg xmlns="http://www.w3.org/2000/svg" xmlns:xlink="http://www.w3.org/1999/xlink" width="500" zoomAndPan="magnify" viewBox="0 0 375 374.999991" height="500" preserveAspectRatio="xMidYMid meet" version="1.0"><defs><clipPath id="2980472a32"><path d="M 20.820312 27.488281 L 352 27.488281 L 352 347.738281 L 20.820312 347.738281 Z M 20.820312 27.488281 " clip-rule="nonzero"/></clipPath></defs><g clip-path="url(#2980472a32)"><path fill="#ffffff" d="M 338.082031 261.160156 C 327.894531 249.988281 312.050781 238.355469 292.960938 228.882812 L 292.714844 228.761719 C 290.855469 227.84375 289.007812 226.976562 287.160156 226.125 L 287.160156 61.859375 C 287.160156 51.449219 277.5 42.480469 261.878906 36.40625 C 247.742188 30.898438 228.339844 27.488281 207.023438 27.488281 C 185.703125 27.488281 166.300781 30.898438 152.160156 36.394531 C 136.546875 42.472656 126.878906 51.4375 126.878906 61.851562 L 126.878906 131.75 C 118.785156 130.625 110.101562 130.007812 101.0625 130.007812 C 79.742188 130.007812 60.339844 133.417969 46.199219 138.914062 C 30.585938 145 20.925781 153.964844 20.925781 164.378906 L 20.925781 313.15625 C 20.925781 323.566406 30.585938 332.535156 46.207031 338.609375 C 60.347656 344.117188 79.75 347.519531 101.070312 347.519531 C 122.386719 347.519531 141.789062 344.109375 155.933594 338.609375 C 169.300781 333.410156 178.296875 326.085938 180.609375 317.558594 C 183.886719 318.019531 187.25 318.417969 190.707031 318.707031 C 195.992188 319.152344 201.449219 319.382812 207.023438 319.382812 C 212.015625 319.382812 216.953125 319.191406 221.785156 318.820312 C 225.960938 318.507812 230.097656 318.027344 234.160156 317.433594 C 237.867188 319.589844 241.722656 321.6875 245.738281 323.675781 L 245.984375 323.800781 C 265.046875 333.226562 283.914062 338.769531 298.988281 340.105469 C 315.660156 341.582031 328.285156 337.835938 332.898438 328.503906 L 349.402344 295.175781 C 354.035156 285.835938 349.363281 273.527344 338.082031 261.160156 Z M 288.296875 238.113281 C 306.238281 247.007812 321.027344 257.824219 330.429688 268.125 C 338.769531 277.265625 342.664062 285.472656 340.140625 290.574219 L 340.132812 290.585938 C 337.597656 295.6875 328.703125 297.5625 316.394531 296.460938 C 302.515625 295.230469 284.9375 290.015625 266.9375 281.097656 C 248.988281 272.207031 234.195312 261.382812 224.789062 251.070312 C 216.453125 241.929688 212.5625 233.722656 215.089844 228.621094 C 217.617188 223.519531 226.507812 221.636719 238.824219 222.734375 C 250.515625 223.773438 264.839844 227.644531 279.820312 234.167969 C 279.902344 234.210938 279.984375 234.242188 280.066406 234.277344 C 282.78125 235.464844 285.515625 236.726562 288.265625 238.089844 Z M 189.289062 257.386719 C 187.296875 261.398438 187.035156 265.972656 188.273438 270.851562 C 187.667969 270.785156 187.066406 270.734375 186.472656 270.667969 C 184.699219 270.464844 182.945312 270.230469 181.203125 269.976562 L 181.203125 243.25 C 183.738281 243.597656 186.363281 243.902344 189.097656 244.160156 C 191.226562 244.355469 193.398438 244.515625 195.605469 244.644531 Z M 276.789062 210.621094 C 276.789062 212.171875 276.210938 213.742188 275.121094 215.304688 C 274.105469 216.765625 272.675781 218.191406 270.894531 219.578125 C 259.632812 215.675781 248.957031 213.261719 239.710938 212.445312 C 223.039062 210.96875 210.414062 214.714844 205.800781 224.046875 L 200.617188 234.515625 C 197.007812 234.390625 193.472656 234.167969 190.03125 233.855469 C 187.074219 233.582031 184.128906 233.210938 181.203125 232.78125 L 181.203125 206.054688 C 184.292969 206.484375 187.453125 206.847656 190.707031 207.121094 C 195.992188 207.566406 201.449219 207.796875 207.023438 207.796875 C 228.339844 207.796875 247.742188 204.386719 261.886719 198.890625 C 267.765625 196.601562 272.792969 193.902344 276.789062 190.878906 Z M 276.789062 173.433594 C 276.789062 179.140625 269.671875 184.761719 258.152344 189.246094 C 245.175781 194.296875 227.101562 197.429688 207.023438 197.429688 C 201.6875 197.429688 196.519531 197.203125 191.558594 196.792969 C 188 196.496094 184.546875 196.089844 181.203125 195.59375 L 181.203125 168.878906 C 184.277344 169.296875 187.421875 169.660156 190.648438 169.933594 C 195.941406 170.378906 201.425781 170.621094 207.015625 170.621094 C 228.332031 170.621094 247.734375 167.210938 261.878906 161.710938 C 267.757812 159.425781 272.785156 156.722656 276.78125 153.703125 L 276.78125 173.433594 Z M 276.789062 99.046875 C 276.789062 104.75 269.671875 110.371094 258.152344 114.855469 C 245.175781 119.910156 227.101562 123.039062 207.023438 123.039062 C 186.941406 123.039062 168.871094 119.910156 155.890625 114.855469 C 144.382812 110.371094 137.257812 104.75 137.257812 99.046875 L 137.257812 79.304688 C 141.253906 82.335938 146.28125 85.027344 152.160156 87.3125 C 166.300781 92.820312 185.703125 96.222656 207.023438 96.222656 C 228.339844 96.222656 247.742188 92.8125 261.886719 87.3125 C 267.765625 85.027344 272.792969 82.328125 276.789062 79.304688 Z M 137.058594 133.5 C 136.785156 128.246094 136.828125 122.238281 136.949219 116.25 C 140.996094 119.378906 146.132812 122.15625 152.160156 124.507812 C 166.300781 130.015625 185.703125 133.417969 207.023438 133.417969 C 228.339844 133.417969 247.742188 130.007812 261.886719 124.507812 C 267.765625 122.222656 272.792969 119.519531 276.789062 116.5 L 276.789062 136.25 C 276.789062 141.953125 269.671875 147.574219 258.152344 152.058594 C 245.175781 157.113281 227.101562 160.242188 207.023438 160.242188 C 201.671875 160.242188 196.480469 160.019531 191.507812 159.597656 C 187.554688 159.265625 183.722656 158.804688 180.039062 158.226562 C 177.035156 150.449219 168.375 143.769531 155.933594 138.921875 C 150.382812 136.761719 144.019531 134.925781 137.058594 133.5 Z M 170.828125 201.574219 C 170.828125 207.277344 163.710938 212.898438 152.191406 217.382812 C 139.214844 222.4375 121.140625 225.566406 101.0625 225.566406 C 80.980469 225.566406 62.90625 222.4375 49.929688 217.382812 C 38.417969 212.898438 31.292969 207.277344 31.292969 201.574219 L 31.292969 181.824219 C 35.289062 184.851562 40.320312 187.546875 46.199219 189.832031 C 60.339844 195.339844 79.742188 198.742188 101.0625 198.742188 C 122.378906 198.742188 141.78125 195.332031 155.925781 189.832031 C 161.800781 187.546875 166.832031 184.84375 170.828125 181.824219 Z M 46.207031 227.027344 C 60.347656 232.535156 79.75 235.933594 101.070312 235.933594 C 122.386719 235.933594 141.789062 232.527344 155.933594 227.027344 C 161.8125 224.738281 166.839844 222.039062 170.835938 219.019531 L 170.835938 238.765625 C 170.835938 244.472656 163.71875 250.09375 152.199219 254.578125 C 139.222656 259.632812 121.148438 262.761719 101.070312 262.761719 C 80.988281 262.761719 62.917969 259.632812 49.9375 254.578125 C 38.429688 250.09375 31.304688 244.472656 31.304688 238.765625 L 31.304688 219.019531 C 35.289062 222.039062 40.328125 224.738281 46.207031 227.027344 Z M 31.304688 275.953125 L 31.304688 256.203125 C 35.300781 259.234375 40.328125 261.925781 46.207031 264.214844 C 60.347656 269.71875 79.75 273.121094 101.070312 273.121094 C 122.386719 273.121094 141.789062 269.710938 155.933594 264.214844 C 161.8125 261.925781 166.839844 259.226562 170.835938 256.203125 L 170.835938 275.953125 C 170.835938 281.660156 163.71875 287.28125 152.199219 291.765625 C 139.222656 296.816406 121.148438 299.945312 101.070312 299.945312 C 80.988281 299.945312 62.917969 296.816406 49.9375 291.765625 C 38.417969 287.28125 31.304688 281.660156 31.304688 275.953125 Z M 155.882812 46.046875 C 168.863281 40.996094 186.933594 37.867188 207.015625 37.867188 C 227.09375 37.867188 245.167969 40.996094 258.144531 46.046875 C 269.65625 50.53125 276.78125 56.152344 276.78125 61.859375 C 276.78125 67.5625 269.664062 73.1875 258.144531 77.667969 C 245.167969 82.722656 227.09375 85.851562 207.015625 85.851562 C 186.933594 85.851562 168.863281 82.722656 155.882812 77.667969 C 144.375 73.1875 137.25 67.5625 137.25 61.859375 C 137.257812 56.152344 144.375 50.523438 155.882812 46.046875 Z M 49.929688 148.566406 C 62.90625 143.515625 80.980469 140.386719 101.0625 140.386719 C 111.769531 140.386719 121.890625 141.285156 130.988281 142.878906 C 131.039062 142.886719 131.082031 142.894531 131.128906 142.902344 C 139.039062 144.296875 146.171875 146.222656 152.199219 148.566406 C 163.710938 153.050781 170.835938 158.671875 170.835938 164.378906 C 170.835938 170.082031 163.71875 175.707031 152.199219 180.1875 C 139.222656 185.242188 121.148438 188.371094 101.070312 188.371094 C 80.988281 188.371094 62.917969 185.242188 49.9375 180.1875 C 38.429688 175.707031 31.304688 170.082031 31.304688 164.378906 C 31.304688 158.671875 38.417969 153.050781 49.929688 148.566406 Z M 152.199219 328.960938 C 139.222656 334.011719 121.148438 337.140625 101.070312 337.140625 C 80.988281 337.140625 62.917969 334.011719 49.9375 328.960938 C 38.429688 324.476562 31.304688 318.855469 31.304688 313.148438 L 31.304688 293.398438 C 35.300781 296.429688 40.328125 299.121094 46.207031 301.40625 C 60.347656 306.914062 79.75 310.316406 101.070312 310.316406 C 122.386719 310.316406 141.789062 306.90625 155.933594 301.40625 C 161.8125 299.121094 166.839844 296.421875 170.835938 293.398438 L 170.835938 313.148438 C 170.828125 318.84375 163.710938 324.476562 152.199219 328.960938 Z M 207.023438 308.996094 C 201.6875 308.996094 196.519531 308.773438 191.558594 308.359375 C 188 308.0625 184.546875 307.65625 181.203125 307.164062 L 181.203125 280.445312 C 182.550781 280.625 183.90625 280.808594 185.300781 280.964844 C 187.828125 281.253906 190.433594 281.492188 193.136719 281.683594 C 195.140625 284.878906 197.652344 288.132812 200.617188 291.394531 C 205.824219 297.097656 212.511719 302.925781 220.347656 308.523438 C 216.070312 308.832031 211.621094 308.996094 207.023438 308.996094 Z M 323.625 323.914062 C 321.101562 329.015625 312.207031 330.898438 299.890625 329.800781 C 286.011719 328.570312 268.433594 323.351562 250.449219 314.453125 L 250.410156 314.4375 C 232.46875 305.542969 217.679688 294.730469 208.277344 284.425781 C 205.207031 281.066406 202.746094 277.828125 200.988281 274.824219 C 200.8125 274.367188 200.574219 273.949219 200.285156 273.566406 C 197.816406 268.9375 197.105469 264.921875 198.578125 261.960938 L 207.335938 244.265625 C 209.566406 248.75 212.875 253.398438 217.121094 258.054688 C 227.332031 269.242188 243.21875 280.90625 262.363281 290.394531 C 281.476562 299.855469 300.386719 305.421875 315.496094 306.765625 C 321.777344 307.328125 327.484375 307.136719 332.402344 306.195312 Z M 323.625 323.914062 " fill-opacity="1" fill-rule="nonzero"/></g></svg>