<svg xmlns="http://www.w3.org/2000/svg" xmlns:xlink="http://www.w3.org/1999/xlink" width="500" zoomAndPan="magnify" viewBox="0 0 375 374.999991" height="500" preserveAspectRatio="xMidYMid meet" version="1.0"><path fill="#ffffff" d="M 187.5 485.265625 C 23.3125 485.265625 -110.265625 351.6875 -110.265625 187.5 C -110.265625 23.3125 23.3125 -110.265625 187.5 -110.265625 C 351.6875 -110.265625 485.265625 23.3125 485.265625 187.5 C 485.265625 351.6875 351.6875 485.265625 187.5 485.265625 Z M 187.5 -137.425781 C 8.332031 -137.425781 -137.425781 8.332031 -137.425781 187.5 C -137.425781 366.664062 8.332031 512.425781 187.5 512.425781 C 366.664062 512.425781 512.425781 366.664062 512.425781 187.5 C 512.425781 8.332031 366.664062 -137.425781 187.5 -137.425781 " fill-opacity="1" fill-rule="nonzero"/><path fill="#ffffff" d="M 290.578125 65.214844 L 187.5 168.292969 L 84.421875 65.214844 L 65.214844 84.421875 L 168.292969 187.5 L 65.214844 290.578125 L 84.421875 309.785156 L 187.5 206.707031 L 290.578125 309.785156 L 309.785156 290.578125 L 206.707031 187.5 L 309.785156 84.421875 L 290.578125 65.214844 " fill-opacity="1" fill-rule="nonzero"/></svg>