<svg xmlns="http://www.w3.org/2000/svg" xmlns:xlink="http://www.w3.org/1999/xlink" width="500" zoomAndPan="magnify" viewBox="0 0 375 374.999991" height="500" preserveAspectRatio="xMidYMid meet" version="1.0"><defs><clipPath id="b350c46658"><path d="M 124 41.410156 L 251 41.410156 L 251 292 L 124 292 Z M 124 41.410156 " clip-rule="nonzero"/></clipPath><clipPath id="8ef6c02709"><path d="M 41.410156 229 L 333.910156 229 L 333.910156 333.910156 L 41.410156 333.910156 Z M 41.410156 229 " clip-rule="nonzero"/></clipPath></defs><g clip-path="url(#b350c46658)"><path fill="#ffffff" d="M 179.480469 288.09375 C 179.578125 288.207031 179.730469 288.25 179.828125 288.359375 C 180.539062 289.097656 181.34375 289.71875 182.238281 290.21875 C 182.5625 290.464844 182.898438 290.691406 183.25 290.898438 C 184.59375 291.527344 186.011719 291.84375 187.496094 291.84375 C 188.980469 291.84375 190.398438 291.527344 191.742188 290.898438 C 192.09375 290.691406 192.429688 290.464844 192.753906 290.21875 C 193.648438 289.71875 194.453125 289.097656 195.164062 288.359375 C 195.265625 288.25 195.414062 288.207031 195.511719 288.09375 L 247.683594 225.484375 C 248.125 224.957031 248.507812 224.394531 248.835938 223.792969 C 249.164062 223.191406 249.429688 222.5625 249.636719 221.90625 C 249.839844 221.253906 249.980469 220.585938 250.050781 219.902344 C 250.125 219.222656 250.132812 218.539062 250.070312 217.855469 C 250.007812 217.175781 249.878906 216.503906 249.6875 215.847656 C 249.492188 215.1875 249.238281 214.554688 248.917969 213.949219 C 248.601562 213.339844 248.226562 212.769531 247.796875 212.238281 C 247.363281 211.703125 246.886719 211.21875 246.359375 210.777344 C 245.832031 210.339844 245.269531 209.957031 244.667969 209.628906 C 244.0625 209.300781 243.4375 209.035156 242.78125 208.828125 C 242.125 208.625 241.457031 208.488281 240.777344 208.414062 C 240.09375 208.34375 239.414062 208.335938 238.730469 208.398438 C 238.046875 208.460938 237.375 208.589844 236.71875 208.785156 C 236.0625 208.976562 235.429688 209.234375 234.824219 209.554688 C 234.214844 209.871094 233.644531 210.246094 233.113281 210.679688 C 232.578125 211.109375 232.09375 211.589844 231.65625 212.117188 L 197.929688 252.582031 L 197.929688 51.84375 C 197.929688 51.160156 197.863281 50.480469 197.730469 49.808594 C 197.597656 49.136719 197.398438 48.484375 197.136719 47.851562 C 196.875 47.21875 196.550781 46.617188 196.171875 46.046875 C 195.792969 45.476562 195.359375 44.949219 194.875 44.464844 C 194.390625 43.980469 193.863281 43.550781 193.292969 43.167969 C 192.722656 42.789062 192.121094 42.464844 191.488281 42.203125 C 190.855469 41.941406 190.203125 41.742188 189.53125 41.609375 C 188.859375 41.476562 188.179688 41.410156 187.496094 41.410156 C 186.8125 41.410156 186.132812 41.476562 185.460938 41.609375 C 184.789062 41.742188 184.136719 41.941406 183.503906 42.203125 C 182.871094 42.464844 182.269531 42.789062 181.699219 43.167969 C 181.128906 43.550781 180.601562 43.980469 180.117188 44.464844 C 179.632812 44.949219 179.199219 45.476562 178.820312 46.046875 C 178.4375 46.617188 178.117188 47.21875 177.855469 47.851562 C 177.59375 48.484375 177.394531 49.136719 177.261719 49.808594 C 177.128906 50.480469 177.0625 51.160156 177.0625 51.84375 L 177.0625 252.582031 L 143.335938 212.117188 C 142.898438 211.589844 142.414062 211.109375 141.878906 210.675781 C 141.347656 210.246094 140.777344 209.871094 140.167969 209.550781 C 139.5625 209.234375 138.929688 208.976562 138.273438 208.78125 C 137.613281 208.585938 136.945312 208.460938 136.261719 208.398438 C 135.578125 208.335938 134.894531 208.339844 134.214844 208.414062 C 133.53125 208.484375 132.863281 208.621094 132.207031 208.828125 C 131.554688 209.03125 130.925781 209.296875 130.324219 209.625 C 129.722656 209.953125 129.15625 210.335938 128.628906 210.777344 C 128.101562 211.214844 127.625 211.703125 127.195312 212.234375 C 126.761719 212.769531 126.386719 213.339844 126.070312 213.945312 C 125.75 214.554688 125.496094 215.1875 125.300781 215.84375 C 125.109375 216.503906 124.980469 217.171875 124.917969 217.855469 C 124.859375 218.539062 124.863281 219.222656 124.9375 219.902344 C 125.011719 220.585938 125.148438 221.253906 125.355469 221.90625 C 125.558594 222.5625 125.824219 223.191406 126.15625 223.792969 C 126.484375 224.394531 126.867188 224.957031 127.308594 225.484375 Z M 179.480469 288.09375 " fill-opacity="1" fill-rule="nonzero"/></g><g clip-path="url(#8ef6c02709)"><path fill="#ffffff" d="M 323.148438 229.234375 C 322.460938 229.234375 321.785156 229.300781 321.113281 229.433594 C 320.4375 229.570312 319.785156 229.765625 319.152344 230.027344 C 318.519531 230.292969 317.917969 230.613281 317.351562 230.992188 C 316.78125 231.375 316.253906 231.804688 315.769531 232.289062 C 315.285156 232.777344 314.851562 233.300781 314.472656 233.871094 C 314.089844 234.441406 313.769531 235.042969 313.507812 235.675781 C 313.246094 236.308594 313.046875 236.960938 312.914062 237.632812 C 312.777344 238.304688 312.710938 238.984375 312.710938 239.667969 L 312.710938 302.277344 C 312.710938 302.960938 312.644531 303.640625 312.511719 304.3125 C 312.375 304.984375 312.179688 305.636719 311.914062 306.269531 C 311.652344 306.902344 311.332031 307.503906 310.949219 308.074219 C 310.570312 308.640625 310.136719 309.167969 309.652344 309.652344 C 309.167969 310.136719 308.640625 310.570312 308.074219 310.949219 C 307.503906 311.332031 306.902344 311.652344 306.269531 311.914062 C 305.636719 312.179688 304.984375 312.375 304.3125 312.511719 C 303.640625 312.644531 302.960938 312.710938 302.277344 312.710938 L 72.714844 312.710938 C 72.027344 312.710938 71.351562 312.644531 70.679688 312.511719 C 70.007812 312.375 69.355469 312.179688 68.722656 311.914062 C 68.089844 311.652344 67.488281 311.332031 66.917969 310.949219 C 66.351562 310.570312 65.824219 310.136719 65.339844 309.652344 C 64.855469 309.167969 64.421875 308.640625 64.039062 308.074219 C 63.660156 307.503906 63.339844 306.902344 63.074219 306.269531 C 62.8125 305.636719 62.617188 304.984375 62.480469 304.3125 C 62.347656 303.640625 62.28125 302.960938 62.28125 302.277344 L 62.28125 239.667969 C 62.28125 238.984375 62.210938 238.304688 62.078125 237.632812 C 61.945312 236.960938 61.746094 236.308594 61.484375 235.675781 C 61.222656 235.042969 60.902344 234.441406 60.519531 233.871094 C 60.140625 233.300781 59.707031 232.777344 59.222656 232.289062 C 58.738281 231.804688 58.210938 231.375 57.640625 230.992188 C 57.070312 230.613281 56.472656 230.292969 55.835938 230.027344 C 55.203125 229.765625 54.550781 229.570312 53.878906 229.433594 C 53.207031 229.300781 52.53125 229.234375 51.84375 229.234375 C 51.160156 229.234375 50.480469 229.300781 49.808594 229.433594 C 49.136719 229.570312 48.484375 229.765625 47.851562 230.027344 C 47.21875 230.292969 46.617188 230.613281 46.046875 230.992188 C 45.476562 231.375 44.949219 231.804688 44.464844 232.289062 C 43.980469 232.777344 43.550781 233.300781 43.167969 233.871094 C 42.789062 234.441406 42.464844 235.042969 42.203125 235.675781 C 41.941406 236.308594 41.742188 236.960938 41.609375 237.632812 C 41.476562 238.304688 41.410156 238.984375 41.410156 239.667969 L 41.410156 302.277344 C 41.410156 303.300781 41.460938 304.324219 41.5625 305.34375 C 41.664062 306.363281 41.816406 307.378906 42.015625 308.382812 C 42.21875 309.386719 42.46875 310.378906 42.765625 311.359375 C 43.0625 312.339844 43.410156 313.304688 43.800781 314.25 C 44.195312 315.199219 44.632812 316.125 45.117188 317.027344 C 45.601562 317.929688 46.125 318.808594 46.695312 319.660156 C 47.265625 320.511719 47.875 321.335938 48.527344 322.128906 C 49.175781 322.917969 49.863281 323.679688 50.589844 324.402344 C 51.3125 325.128906 52.070312 325.816406 52.863281 326.464844 C 53.65625 327.117188 54.480469 327.726562 55.332031 328.296875 C 56.183594 328.863281 57.058594 329.390625 57.964844 329.875 C 58.867188 330.359375 59.792969 330.796875 60.738281 331.191406 C 61.6875 331.582031 62.648438 331.929688 63.628906 332.226562 C 64.613281 332.523438 65.605469 332.773438 66.609375 332.972656 C 67.613281 333.175781 68.625 333.328125 69.648438 333.429688 C 70.667969 333.53125 71.6875 333.582031 72.714844 333.582031 L 302.277344 333.582031 C 303.300781 333.582031 304.324219 333.53125 305.34375 333.429688 C 306.363281 333.328125 307.378906 333.175781 308.382812 332.976562 C 309.386719 332.773438 310.378906 332.523438 311.359375 332.226562 C 312.339844 331.929688 313.304688 331.582031 314.25 331.191406 C 315.199219 330.796875 316.125 330.359375 317.027344 329.875 C 317.929688 329.390625 318.808594 328.863281 319.660156 328.296875 C 320.511719 327.726562 321.335938 327.117188 322.128906 326.464844 C 322.917969 325.816406 323.679688 325.128906 324.402344 324.402344 C 325.128906 323.679688 325.816406 322.917969 326.464844 322.128906 C 327.117188 321.335938 327.726562 320.511719 328.296875 319.660156 C 328.863281 318.808594 329.390625 317.929688 329.875 317.027344 C 330.359375 316.125 330.796875 315.199219 331.191406 314.25 C 331.582031 313.304688 331.929688 312.339844 332.226562 311.359375 C 332.523438 310.378906 332.773438 309.386719 332.976562 308.382812 C 333.175781 307.378906 333.328125 306.363281 333.429688 305.34375 C 333.53125 304.324219 333.582031 303.300781 333.582031 302.277344 L 333.582031 239.667969 C 333.582031 238.984375 333.515625 238.304688 333.382812 237.632812 C 333.246094 236.960938 333.050781 236.308594 332.789062 235.675781 C 332.523438 235.042969 332.203125 234.441406 331.824219 233.871094 C 331.441406 233.300781 331.011719 232.777344 330.527344 232.289062 C 330.042969 231.804688 329.515625 231.375 328.945312 230.992188 C 328.375 230.613281 327.773438 230.292969 327.140625 230.027344 C 326.507812 229.765625 325.855469 229.570312 325.183594 229.433594 C 324.511719 229.300781 323.832031 229.234375 323.148438 229.234375 Z M 323.148438 229.234375 " fill-opacity="1" fill-rule="nonzero"/></g></svg>