<svg xmlns="http://www.w3.org/2000/svg" xmlns:xlink="http://www.w3.org/1999/xlink" width="500" zoomAndPan="magnify" viewBox="0 0 375 374.999991" height="500" preserveAspectRatio="xMidYMid meet" version="1.0"><defs><clipPath id="280f5c9b39"><path d="M 18.199219 25.058594 L 182 25.058594 L 182 351 L 18.199219 351 Z M 18.199219 25.058594 " clip-rule="nonzero"/></clipPath><clipPath id="ff75c3edd0"><path d="M 105 25.058594 L 269 25.058594 L 269 166 L 105 166 Z M 105 25.058594 " clip-rule="nonzero"/></clipPath></defs><g clip-path="url(#280f5c9b39)"><path fill="#ffffff" d="M 171.871094 54.960938 L 28.335938 26.152344 C 25.855469 25.664062 23.566406 26.304688 21.617188 27.898438 C 19.65625 29.492188 18.796875 31.875 18.796875 34.390625 L 18.796875 309.761719 C 18.796875 316.027344 23.210938 321.414062 29.367188 322.640625 L 167.753906 350.320312 C 171.609375 351.089844 174.570312 350.09375 177.613281 347.589844 C 180.660156 345.085938 181.375 341.378906 181.375 337.433594 L 181.375 67.847656 C 181.375 61.582031 178.003906 56.1875 171.871094 54.960938 Z M 155.765625 218.773438 C 149.824219 218.773438 145.011719 213.960938 145.011719 208.03125 C 145.011719 202.082031 149.824219 197.28125 155.765625 197.28125 C 161.703125 197.28125 166.515625 202.082031 166.515625 208.03125 C 166.515625 213.960938 161.703125 218.773438 155.765625 218.773438 Z M 155.765625 218.773438 " fill-opacity="1" fill-rule="nonzero"/></g><g clip-path="url(#ff75c3edd0)"><path fill="#ffffff" d="M 246.40625 165.957031 L 268.082031 165.957031 L 268.082031 46.734375 C 268.082031 34.769531 258.371094 25.058594 246.40625 25.058594 L 105.507812 25.058594 L 192.214844 46.734375 L 246.40625 46.734375 Z M 246.40625 165.957031 " fill-opacity="1" fill-rule="nonzero"/></g><path fill="#ffffff" d="M 246.40625 296.019531 L 203.054688 296.019531 L 203.054688 317.695312 L 246.40625 317.695312 C 258.371094 317.695312 268.082031 307.984375 268.082031 296.019531 L 268.082031 252.664062 L 246.40625 252.664062 Z M 246.40625 296.019531 " fill-opacity="1" fill-rule="nonzero"/><path fill="#ffffff" d="M 354.792969 209.3125 L 289.761719 155.121094 L 289.761719 187.636719 L 224.730469 187.636719 C 218.734375 187.636719 213.890625 192.480469 213.890625 198.472656 L 213.890625 220.148438 C 213.890625 226.144531 218.734375 230.988281 224.730469 230.988281 L 289.761719 230.988281 L 289.761719 263.503906 Z M 354.792969 209.3125 " fill-opacity="1" fill-rule="nonzero"/></svg>