<svg xmlns="http://www.w3.org/2000/svg" xmlns:xlink="http://www.w3.org/1999/xlink" width="5000" zoomAndPan="magnify" viewBox="0 0 3750 3749.999967" height="5000" preserveAspectRatio="xMidYMid meet" version="1.0"><defs><clipPath id="d1068513c2"><path d="M 1658.597656 1537.761719 L 2295 1537.761719 L 2295 2137.585938 L 1658.597656 2137.585938 Z M 1658.597656 1537.761719 " clip-rule="nonzero"/></clipPath><clipPath id="9a186a92ed"><path d="M 449.652344 1498 L 3374.652344 1498 L 3374.652344 3300 L 449.652344 3300 Z M 449.652344 1498 " clip-rule="nonzero"/></clipPath><clipPath id="4fd342289c"><path d="M 449.652344 375 L 3374.652344 375 L 3374.652344 1329 L 449.652344 1329 Z M 449.652344 375 " clip-rule="nonzero"/></clipPath></defs><g clip-path="url(#d1068513c2)"><path fill="#545454" d="M 1658.597656 1537.761719 L 2295.914062 1537.761719 L 2295.914062 2137.585938 L 1658.597656 2137.585938 Z M 1658.597656 1537.761719 " fill-opacity="1" fill-rule="nonzero"/></g><g clip-path="url(#9a186a92ed)"><path fill="#737373" d="M 1205.363281 1498.5 L 449.96875 1498.5 L 449.96875 2473.613281 C 449.96875 2930.21875 820.195312 3300.339844 1276.695312 3300.339844 L 2548.582031 3300.339844 C 3005.191406 3300.339844 3375.308594 2930.21875 3375.308594 2473.613281 L 3375.308594 1498.5 L 2620.019531 1498.5 C 2669.304688 1601.097656 2696.96875 1716.207031 2696.96875 1837.667969 C 2696.96875 2270.535156 2345.507812 2622 1912.640625 2622 C 1479.773438 2622 1128.308594 2270.535156 1128.308594 1837.667969 C 1128.308594 1716.207031 1155.972656 1601.097656 1205.363281 1498.5 Z M 1205.363281 1498.5 " fill-opacity="1" fill-rule="evenodd"/></g><path fill="#545454" d="M 2484.988281 1837.667969 C 2484.988281 1847.035156 2484.757812 1856.398438 2484.300781 1865.753906 C 2483.839844 1875.109375 2483.148438 1884.449219 2482.234375 1893.769531 C 2481.3125 1903.09375 2480.167969 1912.382812 2478.792969 1921.648438 C 2477.417969 1930.917969 2475.816406 1940.140625 2473.988281 1949.328125 C 2472.164062 1958.515625 2470.109375 1967.652344 2467.835938 1976.742188 C 2465.558594 1985.828125 2463.0625 1994.851562 2460.34375 2003.816406 C 2457.625 2012.78125 2454.6875 2021.671875 2451.527344 2030.488281 C 2448.375 2039.308594 2445.003906 2048.042969 2441.421875 2056.695312 C 2437.835938 2065.351562 2434.039062 2073.910156 2430.035156 2082.378906 C 2426.03125 2090.847656 2421.824219 2099.210938 2417.40625 2107.472656 C 2412.992188 2115.734375 2408.375 2123.882812 2403.558594 2131.914062 C 2398.742188 2139.949219 2393.734375 2147.863281 2388.53125 2155.648438 C 2383.328125 2163.4375 2377.9375 2171.09375 2372.355469 2178.617188 C 2366.773438 2186.140625 2361.015625 2193.523438 2355.074219 2200.765625 C 2349.128906 2208.003906 2343.011719 2215.09375 2336.722656 2222.035156 C 2330.429688 2228.976562 2323.972656 2235.757812 2317.351562 2242.382812 C 2310.726562 2249.003906 2303.945312 2255.460938 2297.003906 2261.753906 C 2290.066406 2268.042969 2282.976562 2274.160156 2275.734375 2280.101562 C 2268.492188 2286.042969 2261.109375 2291.804688 2253.585938 2297.382812 C 2246.0625 2302.964844 2238.40625 2308.355469 2230.617188 2313.558594 C 2222.832031 2318.765625 2214.921875 2323.773438 2206.886719 2328.589844 C 2198.851562 2333.40625 2190.703125 2338.019531 2182.441406 2342.4375 C 2174.183594 2346.851562 2165.816406 2351.0625 2157.351562 2355.066406 C 2148.882812 2359.070312 2140.320312 2362.867188 2131.667969 2366.449219 C 2123.011719 2370.035156 2114.277344 2373.40625 2105.457031 2376.558594 C 2096.636719 2379.714844 2087.746094 2382.65625 2078.785156 2385.375 C 2069.820312 2388.09375 2060.792969 2390.589844 2051.707031 2392.867188 C 2042.621094 2395.140625 2033.484375 2397.191406 2024.300781 2399.019531 C 2015.113281 2400.847656 2005.886719 2402.449219 1996.621094 2403.820312 C 1987.355469 2405.195312 1978.0625 2406.34375 1968.742188 2407.261719 C 1959.417969 2408.183594 1950.082031 2408.871094 1940.726562 2409.328125 C 1931.367188 2409.789062 1922.003906 2410.019531 1912.640625 2410.019531 C 1903.273438 2410.019531 1893.910156 2409.789062 1884.554688 2409.328125 C 1875.199219 2408.871094 1865.859375 2408.183594 1856.539062 2407.261719 C 1847.21875 2406.34375 1837.921875 2405.199219 1828.660156 2403.824219 C 1819.394531 2402.449219 1810.167969 2400.847656 1800.980469 2399.019531 C 1791.792969 2397.191406 1782.65625 2395.140625 1773.566406 2392.867188 C 1764.484375 2390.589844 1755.457031 2388.09375 1746.496094 2385.375 C 1737.53125 2382.65625 1728.640625 2379.714844 1719.820312 2376.558594 C 1711 2373.40625 1702.265625 2370.035156 1693.609375 2366.449219 C 1684.957031 2362.867188 1676.394531 2359.070312 1667.925781 2355.066406 C 1659.460938 2351.0625 1651.097656 2346.851562 1642.835938 2342.4375 C 1634.574219 2338.019531 1626.425781 2333.40625 1618.390625 2328.589844 C 1610.355469 2323.773438 1602.445312 2318.765625 1594.65625 2313.558594 C 1586.867188 2308.355469 1579.210938 2302.964844 1571.691406 2297.382812 C 1564.164062 2291.804688 1556.785156 2286.042969 1549.542969 2280.101562 C 1542.300781 2274.160156 1535.210938 2268.042969 1528.269531 2261.75 C 1521.332031 2255.460938 1514.550781 2249.003906 1507.925781 2242.382812 C 1501.304688 2235.757812 1494.847656 2228.976562 1488.554688 2222.035156 C 1482.265625 2215.09375 1476.148438 2208.003906 1470.207031 2200.765625 C 1464.265625 2193.523438 1458.503906 2186.140625 1452.921875 2178.617188 C 1447.34375 2171.09375 1441.953125 2163.4375 1436.75 2155.648438 C 1431.542969 2147.859375 1426.535156 2139.949219 1421.71875 2131.914062 C 1416.902344 2123.882812 1412.289062 2115.734375 1407.871094 2107.472656 C 1403.457031 2099.210938 1399.246094 2090.847656 1395.242188 2082.382812 C 1391.238281 2073.914062 1387.441406 2065.351562 1383.859375 2056.695312 C 1380.273438 2048.042969 1376.902344 2039.308594 1373.746094 2030.488281 C 1370.59375 2021.667969 1367.65625 2012.777344 1364.9375 2003.816406 C 1362.21875 1994.851562 1359.71875 1985.828125 1357.441406 1976.738281 C 1355.164062 1967.652344 1353.113281 1958.515625 1351.285156 1949.328125 C 1349.460938 1940.140625 1347.859375 1930.917969 1346.484375 1921.648438 C 1345.109375 1912.382812 1343.964844 1903.09375 1343.046875 1893.769531 C 1342.128906 1884.449219 1341.441406 1875.109375 1340.980469 1865.753906 C 1340.519531 1856.398438 1340.289062 1847.035156 1340.289062 1837.667969 C 1340.289062 1828.300781 1340.519531 1818.941406 1340.980469 1809.585938 C 1341.4375 1800.230469 1342.128906 1790.890625 1343.046875 1781.570312 C 1343.964844 1772.246094 1345.109375 1762.953125 1346.484375 1753.6875 C 1347.859375 1744.421875 1349.460938 1735.195312 1351.285156 1726.007812 C 1353.113281 1716.824219 1355.164062 1707.683594 1357.441406 1698.597656 C 1359.71875 1689.511719 1362.21875 1680.488281 1364.933594 1671.523438 C 1367.652344 1662.558594 1370.589844 1653.667969 1373.746094 1644.847656 C 1376.902344 1636.027344 1380.269531 1627.292969 1383.855469 1618.640625 C 1387.441406 1609.984375 1391.234375 1601.421875 1395.238281 1592.957031 C 1399.242188 1584.488281 1403.457031 1576.125 1407.871094 1567.863281 C 1412.285156 1559.601562 1416.902344 1551.457031 1421.71875 1543.421875 C 1426.53125 1535.386719 1431.542969 1527.472656 1436.746094 1519.6875 C 1441.953125 1511.898438 1447.34375 1504.242188 1452.921875 1496.71875 C 1458.503906 1489.195312 1464.265625 1481.8125 1470.207031 1474.574219 C 1476.148438 1467.332031 1482.265625 1460.242188 1488.554688 1453.300781 C 1494.847656 1446.359375 1501.304688 1439.582031 1507.925781 1432.957031 C 1514.550781 1426.335938 1521.332031 1419.875 1528.273438 1413.585938 C 1535.210938 1407.296875 1542.300781 1401.179688 1549.542969 1395.238281 C 1556.785156 1389.296875 1564.167969 1383.535156 1571.691406 1377.953125 C 1579.214844 1372.375 1586.871094 1366.980469 1594.65625 1361.777344 C 1602.445312 1356.574219 1610.355469 1351.566406 1618.390625 1346.75 C 1626.425781 1341.933594 1634.574219 1337.320312 1642.835938 1332.902344 C 1651.097656 1328.488281 1659.460938 1324.277344 1667.925781 1320.273438 C 1676.394531 1316.269531 1684.957031 1312.472656 1693.609375 1308.886719 C 1702.265625 1305.304688 1711 1301.933594 1719.820312 1298.777344 C 1728.640625 1295.621094 1737.53125 1292.683594 1746.496094 1289.964844 C 1755.457031 1287.246094 1764.484375 1284.75 1773.570312 1282.472656 C 1782.65625 1280.195312 1791.792969 1278.148438 1800.980469 1276.320312 C 1810.167969 1274.488281 1819.394531 1272.890625 1828.660156 1271.515625 C 1837.921875 1270.140625 1847.21875 1268.996094 1856.539062 1268.078125 C 1865.859375 1267.15625 1875.199219 1266.46875 1884.554688 1266.011719 C 1893.910156 1265.550781 1903.273438 1265.320312 1912.640625 1265.320312 C 1922.003906 1265.320312 1931.367188 1265.550781 1940.726562 1266.011719 C 1950.078125 1266.46875 1959.417969 1267.15625 1968.738281 1268.078125 C 1978.0625 1268.996094 1987.355469 1270.140625 1996.621094 1271.515625 C 2005.886719 1272.890625 2015.109375 1274.488281 2024.296875 1276.320312 C 2033.484375 1278.148438 2042.621094 1280.195312 2051.707031 1282.472656 C 2060.792969 1284.75 2069.820312 1287.246094 2078.785156 1289.964844 C 2087.746094 1292.683594 2096.636719 1295.621094 2105.457031 1298.777344 C 2114.277344 1301.933594 2123.011719 1305.304688 2131.667969 1308.886719 C 2140.320312 1312.472656 2148.882812 1316.269531 2157.351562 1320.273438 C 2165.816406 1324.277344 2174.183594 1328.488281 2182.441406 1332.902344 C 2190.703125 1337.320312 2198.851562 1341.933594 2206.886719 1346.75 C 2214.917969 1351.566406 2222.832031 1356.574219 2230.617188 1361.78125 C 2238.40625 1366.980469 2246.0625 1372.375 2253.585938 1377.953125 C 2261.109375 1383.535156 2268.492188 1389.296875 2275.734375 1395.238281 C 2282.976562 1401.179688 2290.066406 1407.296875 2297.003906 1413.585938 C 2303.945312 1419.875 2310.726562 1426.335938 2317.351562 1432.957031 C 2323.972656 1439.582031 2330.429688 1446.359375 2336.722656 1453.300781 C 2343.011719 1460.242188 2349.128906 1467.332031 2355.074219 1474.574219 C 2361.015625 1481.8125 2366.773438 1489.195312 2372.355469 1496.71875 C 2377.933594 1504.242188 2383.328125 1511.898438 2388.53125 1519.6875 C 2393.734375 1527.472656 2398.742188 1535.386719 2403.558594 1543.421875 C 2408.375 1551.457031 2412.992188 1559.601562 2417.40625 1567.863281 C 2421.824219 1576.125 2426.03125 1584.488281 2430.035156 1592.957031 C 2434.039062 1601.421875 2437.835938 1609.984375 2441.421875 1618.640625 C 2445.003906 1627.292969 2448.375 1636.027344 2451.53125 1644.847656 C 2454.6875 1653.667969 2457.625 1662.558594 2460.34375 1671.523438 C 2463.0625 1680.488281 2465.558594 1689.511719 2467.835938 1698.597656 C 2470.113281 1707.683594 2472.164062 1716.824219 2473.992188 1726.007812 C 2475.816406 1735.195312 2477.417969 1744.421875 2478.792969 1753.6875 C 2480.167969 1762.953125 2481.3125 1772.246094 2482.234375 1781.570312 C 2483.148438 1790.890625 2483.839844 1800.230469 2484.300781 1809.585938 C 2484.757812 1818.941406 2484.988281 1828.300781 2484.988281 1837.667969 Z M 2484.988281 1837.667969 " fill-opacity="1" fill-rule="nonzero"/><g clip-path="url(#4fd342289c)"><path fill="#545454" d="M 449.96875 1328.914062 L 1315.914062 1328.914062 C 1459.847656 1160.285156 1673.84375 1053.339844 1912.640625 1053.339844 C 2151.542969 1053.339844 2365.539062 1160.285156 2509.472656 1328.914062 L 3375.308594 1328.914062 L 3375.308594 1201.726562 C 3375.308594 745.121094 3005.191406 375 2548.582031 375 L 1276.695312 375 C 820.195312 375 449.96875 745.121094 449.96875 1201.726562 Z M 2760.5625 820.160156 C 2854.15625 820.160156 2930.148438 896.15625 2930.148438 989.746094 C 2930.148438 1083.335938 2854.15625 1159.332031 2760.5625 1159.332031 C 2666.976562 1159.332031 2590.980469 1083.335938 2590.980469 989.746094 C 2590.980469 896.15625 2666.976562 820.160156 2760.5625 820.160156 Z M 2760.5625 820.160156 " fill-opacity="1" fill-rule="evenodd"/></g></svg>