<svg xmlns="http://www.w3.org/2000/svg" xmlns:xlink="http://www.w3.org/1999/xlink" width="500" zoomAndPan="magnify" viewBox="0 0 375 374.999991" height="500" preserveAspectRatio="xMidYMid meet" version="1.0"><defs><clipPath id="efe72f9127"><path d="M 28.28125 44 L 340 44 L 340 348.277344 L 28.28125 348.277344 Z M 28.28125 44 " clip-rule="nonzero"/></clipPath><clipPath id="dfac6484e0"><path d="M 91 26.527344 L 347 26.527344 L 347 284 L 91 284 Z M 91 26.527344 " clip-rule="nonzero"/></clipPath></defs><g clip-path="url(#efe72f9127)"><path fill="#b95fa1" d="M 183.808594 44.429688 C 98.082031 44.429688 28.28125 112.617188 28.28125 196.363281 C 28.28125 280.109375 98.082031 348.292969 183.808594 348.292969 C 269.535156 348.292969 339.332031 280.109375 339.332031 196.363281 C 339.332031 160.15625 326.792969 127.777344 305.496094 101.253906 L 290.851562 118.207031 C 309.417969 140.539062 316.683594 165.335938 316.683594 196.363281 C 316.683594 268.128906 257.273438 326.132812 183.804688 326.132812 C 110.339844 326.132812 50.929688 268.128906 50.929688 196.363281 C 50.929688 124.59375 110.339844 66.554688 183.804688 66.554688 C 207.085938 66.554688 224.496094 69.824219 243.507812 80.078125 L 257.421875 62.230469 C 235.164062 50.222656 210.972656 44.429688 183.808594 44.429688 Z M 183.808594 44.429688 " fill-opacity="1" fill-rule="evenodd"/></g><g clip-path="url(#dfac6484e0)"><path fill="#b95fa1" d="M 126.246094 176.378906 C 132.515625 176.378906 137.261719 181.40625 140.476562 191.460938 C 146.910156 210.3125 151.492188 219.738281 154.226562 219.738281 C 156.316406 219.738281 158.488281 218.167969 160.738281 215.027344 C 205.925781 144.332031 247.738281 87.152344 286.167969 43.476562 C 296.140625 32.167969 311.980469 26.511719 333.6875 26.511719 C 338.832031 26.511719 342.292969 26.984375 344.058594 27.925781 C 345.828125 28.867188 346.714844 30.046875 346.714844 31.460938 C 346.714844 33.660156 344.058594 37.980469 338.753906 44.421875 C 276.679688 117.3125 219.109375 194.289062 166.046875 275.359375 C 162.347656 281.011719 154.789062 283.839844 143.371094 283.839844 C 131.792969 283.839844 124.957031 283.371094 122.867188 282.425781 C 117.402344 280.070312 110.96875 268.054688 103.570312 246.375 C 95.207031 222.339844 91.027344 207.257812 91.027344 201.128906 C 91.027344 194.53125 96.65625 188.171875 107.914062 182.042969 C 114.828125 178.273438 120.9375 176.390625 126.242188 176.390625 " fill-opacity="1" fill-rule="nonzero"/></g></svg>