<svg xmlns="http://www.w3.org/2000/svg" xmlns:xlink="http://www.w3.org/1999/xlink" width="500" zoomAndPan="magnify" viewBox="0 0 375 374.999991" height="500" preserveAspectRatio="xMidYMid meet" version="1.0"><defs><clipPath id="710afbf3a5"><path d="M 0 31.40625 L 375 31.40625 L 375 343.40625 L 0 343.40625 Z M 0 31.40625 " clip-rule="nonzero"/></clipPath></defs><g clip-path="url(#710afbf3a5)"><path fill="#fadb5e" d="M 122.199219 34.035156 C 121.792969 32.402344 120.246094 31.425781 118.613281 31.832031 C 117.554688 32.078125 116.65625 32.972656 116.414062 34.035156 C 111.195312 53.585938 98.316406 89.679688 69.945312 111.757812 C 50.21875 127.074219 27.148438 137.667969 2.691406 142.636719 C 1.058594 142.960938 0 144.511719 0.324219 146.140625 C 0.570312 147.28125 1.386719 148.09375 2.445312 148.421875 C 22.335938 153.960938 56.902344 166.101562 74.429688 186.714844 C 88.289062 203.007812 100.597656 243.824219 105.976562 263.785156 C 106.46875 265.335938 108.097656 266.3125 109.648438 265.824219 C 110.625 265.578125 111.441406 264.765625 111.683594 263.785156 C 117.226562 243.5 131.574219 201.542969 158.398438 183.699219 C 182.363281 167.730469 209.023438 159.746094 224.101562 156.160156 C 225.734375 155.753906 226.628906 154.125 226.222656 152.496094 C 225.976562 151.515625 225.246094 150.703125 224.265625 150.457031 C 206.085938 145.082031 172.253906 132.941406 158.398438 114.773438 C 136.875 86.582031 126.601562 52.609375 122.199219 34.035156 Z M 272.933594 201.460938 C 272.691406 200.484375 271.710938 199.914062 270.734375 200.15625 C 270.082031 200.320312 269.59375 200.808594 269.429688 201.460938 C 266.25 213.4375 258.34375 235.515625 240.976562 248.957031 C 228.914062 258.328125 214.808594 264.765625 199.808594 267.777344 C 198.832031 267.941406 198.179688 268.917969 198.425781 269.898438 C 198.585938 270.550781 199.074219 271.121094 199.726562 271.28125 C 211.875 274.703125 233.070312 282.035156 243.75 294.664062 C 252.226562 304.605469 259.726562 329.617188 263.070312 341.839844 C 263.316406 342.816406 264.375 343.386719 265.273438 343.140625 C 265.925781 342.976562 266.332031 342.488281 266.574219 341.839844 C 270 329.453125 278.722656 303.789062 295.109375 292.871094 C 309.78125 283.097656 326.085938 278.207031 335.300781 276.007812 C 336.277344 275.761719 336.847656 274.785156 336.601562 273.808594 C 336.441406 273.15625 335.949219 272.667969 335.378906 272.503906 C 324.210938 269.164062 303.585938 261.832031 295.109375 250.667969 C 281.902344 233.640625 275.625 212.867188 272.933594 201.460938 Z M 332.527344 65.238281 C 332.363281 64.585938 331.710938 64.179688 331.058594 64.339844 C 330.652344 64.421875 330.324219 64.75 330.164062 65.238281 C 328.042969 73.222656 322.824219 87.804688 311.25 96.769531 C 303.261719 102.960938 293.886719 107.277344 283.941406 109.316406 C 283.289062 109.476562 282.878906 110.046875 282.960938 110.699219 C 283.042969 111.1875 283.371094 111.515625 283.859375 111.597656 C 291.929688 113.878906 305.949219 118.765625 313.125 127.15625 C 318.75 133.757812 323.722656 150.375 325.925781 158.441406 C 326.085938 159.09375 326.738281 159.421875 327.390625 159.257812 C 327.800781 159.175781 328.125 158.851562 328.207031 158.441406 C 330.488281 150.214844 336.277344 133.1875 347.199219 125.933594 C 356.902344 119.417969 367.746094 116.238281 373.941406 114.773438 C 374.59375 114.609375 375 113.957031 374.835938 113.308594 C 374.753906 112.898438 374.429688 112.574219 374.023438 112.410156 C 366.601562 110.210938 352.90625 105.324219 347.28125 97.910156 C 338.558594 86.582031 334.320312 72.816406 332.527344 65.238281 Z M 332.527344 65.238281 " fill-opacity="1" fill-rule="nonzero"/></g></svg>